# 3ds Max Wavefront OBJ Exporter v0.97b - (c)2007 guruware
# File Created: 21.01.2019 02:04:55

mtllib 004-Area_2_MeshCollider.mtl

#
# object Area_2_MESHCOLLIDER
#

v  111.9845 -5.3583 -29.7754
v  111.5399 -5.3128 -15.0732
v  113.5382 -5.3179 -14.8926
v  114.0776 -5.3408 -30.4055
v  104.0602 -5.1969 21.3890
v  108.0772 -5.2424 7.2727
v  108.0772 -1.8258 7.2727
v  104.0602 -1.7804 21.3890
v  113.5382 -1.9013 -14.8926
v  114.0776 -1.9243 -30.4055
v  105.8607 -5.2612 22.3770
v  110.0570 -5.2842 7.4610
v  111.9845 -1.9417 -29.7754
v  111.5399 -1.8963 -15.0732
v  105.8607 -1.8447 22.3771
v  110.0570 -1.8676 7.4610
v  109.4354 -5.3583 -29.9421
v  109.4354 -1.9417 -29.9421
v  116.4729 -1.9243 -31.4289
v  116.4729 -5.3408 -31.4289
v  101.0835 -1.7804 21.1882
v  101.0835 -5.1969 21.1882
v  108.1070 -5.2612 24.6824
v  108.1070 -1.8447 24.6824
# 24 vertices

vn 0.5619 0.6440 -0.5192
vn 0.6909 0.7204 0.0614
vn -0.7159 0.6948 -0.0689
vn -0.7480 0.4235 -0.5111
vn 0.4781 0.5851 0.6550
vn 0.6847 0.7137 0.1476
vn 0.9768 -0.0000 0.2139
vn 0.5748 0.0000 0.8183
vn -0.9955 0.0000 -0.0945
vn -0.8250 0.0000 -0.5651
vn -0.8651 0.4474 0.2267
vn -0.6965 0.7011 -0.1527
vn 0.7407 0.0000 -0.6718
vn 0.9958 -0.0000 0.0920
vn -0.9691 -0.0000 0.2468
vn -0.9771 0.0000 -0.2128
vn 0.0652 0.0000 -0.9979
vn -0.3929 0.0000 -0.9196
vn -0.0673 0.0000 0.9977
vn -0.7162 -0.0000 0.6979
# 20 vertex normals

vt 0.0000 1.0000 0.0000
vt 0.0000 0.7182 0.0000
vt 1.0000 0.7116 0.0000
vt 1.0000 1.0000 0.0000
vt 0.0000 0.0000 0.0000
vt 0.0000 0.2815 0.0000
vt 1.0000 0.0000 0.0000
vt 1.0000 0.2881 0.0000
# 8 texture coords

o Area_2_MESHCOLLIDER
g Area_2_MESHCOLLIDER
usemtl wire_088144225
s 1
f 1/1/1 2/2/2 3/3/3 4/4/4 
s 2
f 5/5/5 6/6/6 7/6/7 8/5/8 
f 4/4/4 3/3/3 9/3/9 10/4/10 
s 1
f 6/6/6 5/5/5 11/7/11 12/8/12 
s 2
f 2/2/2 1/1/1 13/1/13 14/2/14 
f 12/8/12 11/7/11 15/7/15 16/8/16 
s 1
f 2/2/2 6/6/6 12/8/12 3/3/3 
s 2
f 6/6/6 2/2/2 14/2/14 7/6/7 
f 3/3/3 12/8/12 16/8/16 9/3/9 
s off
f 13/1/13 1/1/1 17/1/17 18/1/17 
f 4/4/4 10/4/10 19/4/18 20/4/18 
f 5/5/5 8/5/8 21/5/19 22/5/19 
f 15/7/15 11/7/11 23/7/20 24/7/20 
# 13 polygons

