# 3ds Max Wavefront OBJ Exporter v0.97b - (c)2007 guruware
# File Created: 21.01.2019 02:05:54

mtllib 008_Area_4_MeshCollider.mtl

#
# object Area_4_MESHCOLLIDER
#

v  -88.8420 -2.3346 -67.3445
v  -88.6146 -2.3356 -65.3059
v  -84.8566 -2.3997 -65.4125
v  -88.1840 -2.3520 -67.4423
v  -37.0394 -3.5715 -69.4067
v  -30.1557 -3.9625 -69.6929
v  -29.9809 -3.8714 -72.7643
v  -37.0726 -3.4992 -72.2258
v  -84.1330 -2.7174 -76.3209
v  -54.2614 -3.1445 -76.2833
v  -53.3407 -3.0991 -80.4443
v  -88.2073 -2.6989 -79.8179
v  -29.9809 1.1455 -72.7643
v  -37.0726 1.5177 -72.2258
v  -84.8566 2.6172 -65.4125
v  -84.1330 2.2996 -76.3209
v  -88.1840 2.6650 -67.4423
v  -88.8420 2.6824 -67.3445
v  -37.0394 1.4454 -69.4067
v  -30.1557 1.0545 -69.6929
v  -53.3407 1.9179 -80.4443
v  -88.2073 2.3180 -79.8179
v  -54.2614 1.8725 -76.2833
v  -88.6146 2.6813 -65.3059
v  -89.7228 -2.3356 -62.1158
v  -89.7228 2.6813 -62.1158
v  -90.2979 2.6824 -69.1787
v  -90.2979 -2.3346 -69.1787
v  -28.6079 1.0545 -67.7274
v  -28.6079 -3.9625 -67.7274
v  -28.1467 -3.8714 -75.9619
v  -28.1467 1.1455 -75.9619
# 32 vertices

vn -0.3015 0.5079 0.8069
vn -0.4891 0.5388 -0.6860
vn -0.5583 0.5821 -0.5911
vn 0.3779 0.8837 0.2762
vn 0.1498 0.6644 -0.7322
vn 0.3955 0.5189 -0.7579
vn 0.4928 0.4550 0.7417
vn -0.0958 0.7619 0.6405
vn -0.2781 0.8972 -0.3429
vn 0.1397 0.7551 -0.6405
vn -0.1601 0.6520 0.7411
vn 0.5861 0.5797 0.5661
vn 0.5263 0.0000 0.8503
vn -0.2013 0.0000 0.9795
vn -0.6839 0.0000 -0.7296
vn -0.6922 0.0000 -0.7217
vn 0.7481 0.0000 0.6636
vn -0.3719 0.0000 0.9283
vn 0.1738 0.0000 -0.9848
vn 0.4096 0.0000 -0.9123
vn -0.2204 0.0000 0.9754
vn 0.7227 0.0000 0.6912
vn 0.1872 0.0000 -0.9823
vn -0.5941 0.0000 -0.8044
vn -0.9446 0.0000 -0.3281
vn -0.7833 0.0000 0.6217
vn 0.7856 0.0000 -0.6187
vn 0.8674 0.0000 0.4976
# 28 vertex normals

vt 0.0000 1.0000 0.0000
vt 0.0000 0.0000 0.0000
vt 0.0394 0.0000 0.0000
vt 0.0113 1.0000 0.0000
vt 0.7597 0.0000 0.0000
vt 1.0000 0.0000 0.0000
vt 1.0000 1.0000 0.0000
vt 0.7578 1.0000 0.0000
vt 0.2347 0.0000 0.0000
vt 0.4972 0.0000 0.0000
vt 0.4975 1.0000 0.0000
vt 0.2371 1.0000 0.0000
# 12 texture coords

o Area_4_MESHCOLLIDER
g Area_4_MESHCOLLIDER
usemtl wire_027177027
s 1
f 1/1/1 2/2/2 3/3/3 4/4/4 
f 5/5/5 6/6/6 7/7/7 8/8/8 
f 9/9/9 10/10/10 11/11/11 12/12/12 
s off
f 8/8/8 7/7/7 13/7/13 14/8/14 
f 9/9/9 3/3/3 15/3/15 16/9/16 
f 1/1/1 4/4/4 17/4/17 18/1/18 
f 6/6/6 5/5/5 19/5/19 20/6/20 
f 12/12/12 11/11/11 21/11/21 22/12/22 
f 5/5/5 10/10/10 23/10/23 19/5/19 
f 24/2/24 2/2/2 25/2/25 26/2/25 
f 1/1/1 18/1/18 27/1/26 28/1/26 
f 6/6/6 20/6/20 29/6/27 30/6/27 
f 13/7/13 7/7/7 31/7/28 32/7/28 
s 1
f 3/3/3 9/9/9 12/12/12 4/4/4 
s off
f 3/3/3 2/2/2 24/2/24 15/3/15 
f 4/4/4 12/12/12 22/12/22 17/4/17 
s 1
f 10/10/10 5/5/5 8/8/8 11/11/11 
s off
f 11/11/11 8/8/8 14/8/14 21/11/21 
f 10/10/10 9/9/9 16/9/16 23/10/23 
# 19 polygons

